<svg viewBox="0 0 96 96" xmlns="http://www.w3.org/2000/svg" xmlns:xlink="http://www.w3.org/1999/xlink" id="Icons_PregnantLady" overflow="hidden"><circle cx="45.85" cy="11" r="8" fill="#FFC000"/><path d="M65.43 47.87C65.3205 45.2899 64.3884 42.8124 62.77 40.8L58.25 34.3 53.25 27.09C52.37 25.84 51.56 24.47 50.56 23.3 49.2625 21.7879 47.3821 20.9005 45.39 20.86 43.5832 20.8867 41.8426 21.5447 40.47 22.72 38.66 24 30.81 29.49 28.72 31 26.27 32.72 25.77 35.87 28.26 37.87 32.14 40.93 36.08 44 40 47L35.16 65 45 65 45 93 53 93 53 65 62.57 65 61.21 59.94C60.9858 59.2501 60.8514 58.5342 60.81 57.81 60.7896 56.4597 61.4709 55.1954 62.61 54.47L62.61 54.47C64.442 52.7685 65.4668 50.37 65.43 47.87ZM37.27 34.72 39.8 33 42.25 38.67 42.25 38.67Z" fill="#FFC000"/></svg>